<svg width="14" height="12" viewBox="0 0 14 12" fill="none" xmlns="http://www.w3.org/2000/svg">
<path d="M12.424 10.416H1.57602C0.808661 10.416 0.184021 9.79137 0.184021 9.02401V1.60001C0.184021 0.832648 0.808661 0.208008 1.57602 0.208008H12.424C13.1914 0.208008 13.816 0.832648 13.816 1.60001V9.02401C13.816 9.79137 13.1914 10.416 12.424 10.416ZM1.57602 0.528008C0.984661 0.528008 0.504021 1.00865 0.504021 1.60001V9.02401C0.504021 9.61537 0.984661 10.096 1.57602 10.096H12.424C13.0154 10.096 13.496 9.61537 13.496 9.02401V1.60001C13.496 1.00865 13.0154 0.528008 12.424 0.528008H1.57602Z" fill="white"/>
<path d="M13.656 8.72649H0.344021C0.255701 8.72649 0.184021 8.65481 0.184021 8.56649C0.184021 8.47817 0.255701 8.40649 0.344021 8.40649H13.656C13.7443 8.40649 13.816 8.47817 13.816 8.56649C13.816 8.65481 13.7443 8.72649 13.656 8.72649Z" fill="white"/>
<path d="M11.5568 11.7919H2.87204C2.78372 11.7919 2.71204 11.7202 2.71204 11.6319C2.71204 11.5436 2.78372 11.4719 2.87204 11.4719H11.5568C11.6452 11.4719 11.7168 11.5436 11.7168 11.6319C11.7168 11.7202 11.6452 11.7919 11.5568 11.7919Z" fill="white"/>
<path d="M4.02913 11.7919C4.00417 11.7919 3.97921 11.7861 3.95617 11.774C3.87745 11.7337 3.84673 11.637 3.88705 11.5583L4.59745 10.1823C4.63777 10.1036 4.73441 10.0729 4.81313 10.1132C4.89185 10.1535 4.92257 10.2502 4.88225 10.3289L4.17185 11.7049C4.14305 11.7606 4.08737 11.7919 4.02913 11.7919Z" fill="white"/>
<path d="M9.98752 11.792C9.92928 11.792 9.8736 11.7606 9.84544 11.7056L9.13504 10.3296C9.09472 10.2509 9.12544 10.1542 9.20416 10.1139C9.28288 10.0736 9.37888 10.1043 9.41984 10.183L10.1302 11.559C10.1706 11.6378 10.1398 11.7344 10.0611 11.7747C10.0374 11.7862 10.0125 11.792 9.98752 11.792Z" fill="white"/>
<path d="M3.51201 5.21162H2.36001C2.27169 5.21162 2.20001 5.13994 2.20001 5.05162V2.79818C2.20001 2.70986 2.27169 2.63818 2.36001 2.63818H3.51201C3.60033 2.63818 3.67201 2.70986 3.67201 2.79818V5.05162C3.67201 5.13994 3.60033 5.21162 3.51201 5.21162ZM2.52001 4.89162H3.35201V2.95818H2.52001V4.89162Z" fill="white"/>
<path d="M2.936 6.00008C2.84768 6.00008 2.776 5.9284 2.776 5.84008V5.0516C2.776 4.96328 2.84768 4.8916 2.936 4.8916C3.02432 4.8916 3.096 4.96328 3.096 5.0516V5.84008C3.096 5.9284 3.02432 6.00008 2.936 6.00008Z" fill="white"/>
<path d="M2.936 2.98055C2.84768 2.98055 2.776 2.90887 2.776 2.82055V2.03207C2.776 1.94375 2.84768 1.87207 2.936 1.87207C3.02432 1.87207 3.096 1.94375 3.096 2.03207V2.82055C3.096 2.90887 3.02432 2.98055 2.936 2.98055Z" fill="white"/>
<path d="M6.13604 6.51538H4.98404C4.89572 6.51538 4.82404 6.4437 4.82404 6.35538V3.43954C4.82404 3.35122 4.89572 3.27954 4.98404 3.27954H6.13604C6.22436 3.27954 6.29604 3.35122 6.29604 3.43954V6.35538C6.29604 6.4437 6.22436 6.51538 6.13604 6.51538ZM5.14404 6.19538H5.97604V3.59954H5.14404V6.19538Z" fill="white"/>
<path d="M5.56002 7.53611C5.4717 7.53611 5.40002 7.46443 5.40002 7.37611V6.35531C5.40002 6.26699 5.4717 6.19531 5.56002 6.19531C5.64834 6.19531 5.72002 6.26699 5.72002 6.35531V7.37611C5.72002 7.46443 5.64834 7.53611 5.56002 7.53611Z" fill="white"/>
<path d="M5.56002 3.62889C5.4717 3.62889 5.40002 3.55721 5.40002 3.46889V2.44809C5.40002 2.35977 5.4717 2.28809 5.56002 2.28809C5.64834 2.28809 5.72002 2.35977 5.72002 2.44809V3.46889C5.72002 3.55721 5.64834 3.62889 5.56002 3.62889Z" fill="white"/>
<path d="M8.82402 5.55542H7.67202C7.5837 5.55542 7.51202 5.48374 7.51202 5.39542V2.47958C7.51202 2.39126 7.5837 2.31958 7.67202 2.31958H8.82402C8.91234 2.31958 8.98402 2.39126 8.98402 2.47958V5.39542C8.98402 5.48374 8.91234 5.55542 8.82402 5.55542ZM7.83202 5.23542H8.66402V2.63958H7.83202V5.23542Z" fill="white"/>
<path d="M8.24801 6.57615C8.15969 6.57615 8.08801 6.50447 8.08801 6.41615V5.39535C8.08801 5.30703 8.15969 5.23535 8.24801 5.23535C8.33633 5.23535 8.40801 5.30703 8.40801 5.39535V6.41615C8.40801 6.50447 8.33633 6.57615 8.24801 6.57615Z" fill="white"/>
<path d="M8.24801 2.66892C8.15969 2.66892 8.08801 2.59724 8.08801 2.50892V1.48813C8.08801 1.39981 8.15969 1.32812 8.24801 1.32812C8.33633 1.32812 8.40801 1.39981 8.40801 1.48813V2.50892C8.40801 2.59724 8.33633 2.66892 8.24801 2.66892Z" fill="white"/>
<path d="M11.576 7.09131H10.424C10.3357 7.09131 10.264 7.01963 10.264 6.93131V4.01547C10.264 3.92715 10.3357 3.85547 10.424 3.85547H11.576C11.6644 3.85547 11.736 3.92715 11.736 4.01547V6.93131C11.736 7.01963 11.6644 7.09131 11.576 7.09131ZM10.584 6.77131H11.416V4.17547H10.584V6.77131Z" fill="white"/>
<path d="M11 8.11204C10.9117 8.11204 10.84 8.04036 10.84 7.95204V6.93124C10.84 6.84292 10.9117 6.77124 11 6.77124C11.0883 6.77124 11.16 6.84292 11.16 6.93124V7.95204C11.16 8.04036 11.0883 8.11204 11 8.11204Z" fill="white"/>
<path d="M11 4.20481C10.9117 4.20481 10.84 4.13313 10.84 4.04481V3.02401C10.84 2.93569 10.9117 2.86401 11 2.86401C11.0883 2.86401 11.16 2.93569 11.16 3.02401V4.04481C11.16 4.13313 11.0883 4.20481 11 4.20481Z" fill="white"/>
</svg>
