<svg width="76" height="102" viewBox="0 0 76 102" fill="none" xmlns="http://www.w3.org/2000/svg">
<path d="M53.4041 95.8844C71.4406 95.8844 86.062 93.5544 86.062 90.6803C86.062 87.8061 71.4406 85.4761 53.4041 85.4761C35.3676 85.4761 20.7461 87.8061 20.7461 90.6803C20.7461 93.5544 35.3676 95.8844 53.4041 95.8844Z" fill="#CE4910"/>
<path d="M86.0566 91.1171L82.818 96.8912L82.525 97.3972V97.4079C81.1508 98.7715 74.9292 99.9221 66.3692 100.497C66.252 100.508 66.1241 100.508 65.991 100.519C65.3571 100.567 64.7232 100.599 64.068 100.625C60.8294 100.812 57.3085 100.908 53.633 100.908C39.4054 100.908 27.5482 99.4853 24.9648 97.6103V97.5996H24.9541C24.7411 97.4452 24.5919 97.2854 24.5067 97.1202L24.4694 97.051L23.7982 95.8791L20.9431 90.8667C21.2734 91.3141 22.0457 91.735 23.2229 92.1238L23.2336 92.1344C25.3589 92.8482 28.752 93.4821 33.0241 93.9668C38.6597 94.5901 45.8294 94.9789 53.6277 94.9789C58.0649 94.9789 62.2783 94.8511 66.1295 94.6273C66.9871 94.5794 67.818 94.5208 68.6277 94.4622C70.6252 94.3237 72.4895 94.1586 74.226 93.9668C80.3997 93.2637 84.7463 92.2623 86.046 91.1277L86.0566 91.1171Z" fill="#FF8D12"/>
<path d="M100.556 49.3826C100.508 49.4891 100.471 49.5903 100.423 49.6968C100.412 49.7182 100.407 49.7448 100.396 49.7661C100.087 50.5544 99.7569 51.3534 99.4373 52.1418C98.8407 53.6173 98.2548 55.0875 97.6529 56.5683C95.8471 61.0374 94.052 65.5012 92.241 69.9596C92.241 69.9596 92.225 69.9916 92.2037 70.0555C92.177 70.1141 92.1504 70.1727 92.1291 70.2366C92.1238 70.2632 92.1131 70.2898 92.1025 70.3218C92.0545 70.4283 92.0066 70.5349 91.9586 70.6414C90.7122 73.7309 89.4711 76.8204 88.2193 79.9099C88.1873 79.9898 88.1554 80.0643 88.1234 80.1442C86.6799 83.7344 85.2364 87.3193 83.7875 90.9042C83.6277 90.9734 83.4146 91.0586 83.1909 91.1279H83.1803C82.8287 91.2451 82.4132 91.3623 81.9391 91.4741C81.7793 91.5114 81.6089 91.554 81.4331 91.5913C80.0801 91.879 78.3276 92.14 76.2609 92.3743C75.2168 92.4915 74.0982 92.5981 72.9051 92.6993C72.4736 92.7365 72.0262 92.7685 71.5787 92.8058C70.8862 92.8644 70.1725 92.9123 69.4321 92.9603C68.7396 93.0029 68.0098 93.0402 67.2747 93.0881C66.7794 93.1094 66.2627 93.1361 65.746 93.1574C65.4743 93.168 65.208 93.1787 64.9363 93.1787C64.2918 93.216 63.6206 93.2373 62.9388 93.2639C60.6856 93.3331 58.3259 93.3811 55.8863 93.4024C55.1086 93.413 54.3255 93.413 53.5265 93.413H53.42C52.621 93.413 51.838 93.413 51.0603 93.4024C47.502 93.3811 44.1249 93.2852 41.0141 93.1467C36.7528 92.9443 32.9921 92.6513 29.9879 92.2891C29.5884 92.2358 29.2048 92.1879 28.832 92.14C28.5124 92.092 28.1981 92.0494 27.8998 92.0068C26.3604 91.7724 25.1033 91.5114 24.1764 91.2451C23.8728 91.1492 23.5958 91.0533 23.3668 90.9574C23.3455 90.9574 23.3242 90.9415 23.3029 90.9255C23.2762 90.9255 23.2443 90.9042 23.2176 90.8935C23.0632 90.5153 22.9087 90.1265 22.7595 89.7536C18.2958 78.706 13.8373 67.6585 9.37356 56.6002C8.77697 55.1088 8.1644 53.6333 7.56781 52.1418C7.39202 51.7157 7.2269 51.2842 7.05112 50.8581L6.66227 49.8886L6.4492 49.3826C6.15623 48.6635 6.88599 47.9497 7.59977 48.264C8.71837 48.7487 9.81034 49.2174 10.8544 49.6649C11.8984 50.107 12.9105 50.5438 13.8959 50.9433C14.1623 51.0498 14.4339 51.167 14.6949 51.2576C17.5074 52.4081 20.011 53.3989 22.1097 54.1819C22.4399 54.2991 22.7702 54.4163 23.0738 54.5335C23.8622 54.8265 24.5866 55.0875 25.2471 55.3112C25.4921 55.3911 25.7372 55.4763 25.9715 55.5562L26.1154 55.6041C27.1008 55.9184 27.8732 56.1528 28.4378 56.286C29.1196 56.4511 30.0145 56.6002 31.0905 56.5416C31.0905 56.5416 33.1466 56.4351 35.517 55.1194C35.6821 55.0395 35.8472 54.933 36.023 54.8265C36.1988 54.7252 36.3639 54.6081 36.5397 54.4855C36.5504 54.4749 36.561 54.4642 36.561 54.4642C39.4055 52.4827 45.968 39.0381 52.7062 19.5637C52.8234 19.2441 53.0684 19.0577 53.3508 18.9991H53.3614C53.7503 18.9192 54.1817 19.095 54.3468 19.5531C54.3575 19.585 54.3735 19.6117 54.3841 19.6436C61.4473 38.9902 67.8234 52.504 70.4441 54.4642C70.8756 54.7838 71.3124 55.0502 71.7225 55.2739C71.861 55.3591 72.0048 55.4284 72.1327 55.487C72.3564 55.6041 72.5801 55.7107 72.7772 55.7906C73.6455 56.1688 74.258 56.3073 74.258 56.3073C75.0464 56.4937 75.7122 56.531 75.9146 56.5416C75.9146 56.5416 77.2144 56.6002 78.5673 56.286C79.1533 56.1421 79.9736 55.8971 81.0176 55.5562H81.0336L81.0922 55.5349C84.8475 54.2885 91.3514 51.7636 99.4054 48.264C99.6238 48.1734 99.8475 48.1734 100.039 48.2427L100.364 48.4397L100.375 48.4557C100.599 48.6901 100.694 49.031 100.556 49.3826Z" fill="#FF9810"/>
<g style="mix-blend-mode:overlay" opacity="0.4">
<path d="M15.7868 54.0328L25.4761 84.9117L11.5947 51.8755L15.7868 54.0328Z" fill="#FFEFB0"/>
</g>
<path d="M39.2244 54.0328C39.2244 54.0328 53.468 29.6099 53.7929 29.7271C54.1178 29.8442 68.0951 53.8836 68.0951 53.8836L53.7929 21.0872L39.2244 54.0274V54.0328Z" fill="#FFEFB0"/>
<path d="M100.556 49.3826C100.508 49.4891 100.471 49.5903 100.423 49.6968C100.412 49.7182 100.407 49.7448 100.396 49.7661C100.087 50.5544 99.757 51.3534 99.4374 52.1418C98.8409 53.6173 98.2549 55.0875 97.653 56.5683C95.8472 61.0374 94.0521 65.5012 92.2411 69.9596C92.2411 69.9596 92.2251 69.9916 92.2038 70.0555C92.1772 70.1141 92.1505 70.1727 92.1292 70.2366C92.1239 70.2632 92.1132 70.2898 92.1026 70.3218C92.0546 70.4283 92.0067 70.5349 91.9588 70.6414C90.7123 73.7309 89.4712 76.8204 88.2194 79.9099C88.1875 79.9898 88.1555 80.0643 88.1235 80.1442C86.68 83.7344 85.2365 87.3193 83.7876 90.9042C83.6278 90.9734 83.4147 91.0586 83.191 91.1279H83.1804C82.8288 91.2451 82.4133 91.3623 81.9392 91.4741C81.7794 91.5114 81.609 91.554 81.4332 91.5913C80.0802 91.8789 78.3277 92.14 76.261 92.3743C75.217 92.4915 74.0983 92.5981 72.9052 92.6993C72.4737 92.7365 72.0263 92.7685 71.5788 92.8058C70.8864 92.8644 70.1726 92.9123 69.4322 92.9603C68.7397 93.0029 68.0099 93.0402 67.2749 93.0881C66.7795 93.1094 66.2628 93.136 65.7461 93.1574L65.9165 92.2731V92.2305L72.3086 58.3154L72.7773 55.7906C73.6456 56.1688 74.2582 56.3073 74.2582 56.3073C75.0465 56.4937 75.7123 56.531 75.9148 56.5416C75.9148 56.5416 77.2145 56.6002 78.5674 56.286C79.1534 56.1421 79.9737 55.8971 81.0177 55.5562H81.0337L81.0923 55.5349C84.8476 54.2885 91.3515 51.7636 99.4055 48.264C99.6239 48.1734 99.8476 48.1734 100.039 48.2427L100.364 48.4397L100.375 48.4557C100.599 48.6901 100.695 49.031 100.556 49.3826Z" fill="#EF7110"/>
<path d="M75.5843 56.5202L66.5556 93.1252C66.2839 93.1359 66.0176 93.1465 65.7459 93.1625C65.4743 93.1732 65.2079 93.1838 64.9363 93.1838L71.7225 55.2791C72.1007 55.4921 72.4522 55.6572 72.7772 55.7957C73.6454 56.1739 74.258 56.3124 74.258 56.3124C74.7853 56.4403 75.2701 56.4989 75.5843 56.5255V56.5202Z" fill="#FFC870"/>
<path d="M41.0142 93.1465C35.6982 92.9015 31.1651 92.502 27.8999 92.0066L13.896 50.9431C21.0817 53.8994 26.3392 55.7904 28.4432 56.2858C29.125 56.4509 30.0146 56.6001 31.0959 56.5415C31.0959 56.5415 31.8683 56.5042 33.0348 56.1633L41.0195 93.1412L41.0142 93.1465Z" fill="#FFC870"/>
<path d="M22.7595 89.7534C18.3011 78.7059 13.8373 67.6583 9.37883 56.6001C8.60646 54.6878 7.82877 52.7755 7.0564 50.8579L9.2723 51.3533L22.7648 89.7481L22.7595 89.7534Z" fill="#FFEFB0"/>
<path d="M20.2827 56.8557C20.2827 56.8557 26.8292 76.9906 27.0529 77.1131C27.2767 77.2356 32.7472 81.2786 32.7472 81.2786L30.4993 58.1235L20.2827 56.8557Z" fill="#FFEFB0"/>
<path d="M41.5627 93.5354C41.2005 93.0826 34.1001 58.5336 34.1001 58.5336L32.7471 57.1807L41.5627 93.5354Z" fill="#FFEFB0"/>
<path d="M100.556 49.3826C100.508 49.4891 100.476 49.5956 100.428 49.6968C100.108 50.5065 99.7729 51.3268 99.4426 52.1365C89.3698 56.0782 81.8326 58.6031 79.1799 59.1677C77.7949 59.4607 76.4686 59.4021 76.4686 59.4021C76.2555 59.4021 75.579 59.3648 74.764 59.189C74.764 59.189 73.6614 58.9546 72.3084 58.3101C71.8397 58.0864 71.3336 57.8041 70.8542 57.4791C68.1802 55.6468 61.6497 43.0864 54.4054 25.0928C54.3947 25.0555 54.3841 25.0342 54.3681 25.0129C54.1923 24.5761 53.7555 24.4163 53.356 24.4962H53.3454C53.0524 24.5548 52.8074 24.72 52.6742 25.0236C45.7708 43.1397 39.0592 55.6414 36.1455 57.4845L36.1242 57.5058C33.2957 59.2796 30.5365 59.4074 30.5365 59.4074C29.4338 59.466 28.5177 59.3275 27.8252 59.173C25.1725 58.6084 17.6352 56.0835 7.56243 52.1418C7.38665 51.721 7.22153 51.2842 7.04574 50.8634L6.6569 49.8886L6.44383 49.3826C6.15086 48.6688 6.88062 47.9497 7.59439 48.2693C8.70767 48.7487 9.79964 49.2228 10.8437 49.6649C12.1807 50.2295 13.4591 50.7675 14.6842 51.2629C17.502 52.4135 20.0003 53.3989 22.1043 54.1872C22.4346 54.3151 22.7595 54.4323 23.0684 54.5388C23.8568 54.8318 24.5812 55.0928 25.2417 55.3112C25.4868 55.3911 25.7371 55.4763 25.9715 55.5562L26.11 55.6041C27.0954 55.9184 27.8731 56.1581 28.4324 56.286C29.1142 56.4511 30.0038 56.6002 31.0851 56.5416C31.0851 56.5416 33.1412 56.4351 35.5116 55.1194C35.6767 55.0395 35.8525 54.933 36.0176 54.8265C36.1934 54.7199 36.3586 54.6027 36.5343 54.4855L36.5556 54.4642C39.3948 52.4827 45.9573 39.0381 52.6955 19.5637C52.8127 19.2441 53.0577 19.0577 53.3401 18.9991H53.3507C53.7396 18.9192 54.171 19.095 54.3361 19.5531C54.3468 19.5904 54.3575 19.6117 54.3734 19.649C61.442 38.9955 67.8127 52.5093 70.4334 54.4696C70.8702 54.7892 71.3017 55.0555 71.7118 55.2792C71.8503 55.3591 71.9941 55.4337 72.122 55.4923C72.3457 55.6095 72.5694 55.716 72.7665 55.7959C73.6348 56.1741 74.2473 56.3126 74.2473 56.3126C75.0357 56.499 75.7015 56.5363 75.9039 56.547C75.9039 56.547 77.209 56.6056 78.5566 56.2913C79.1426 56.1528 79.9629 55.9024 81.0122 55.5615H81.0229L81.0815 55.5402C84.8368 54.2938 91.3407 51.7743 99.3947 48.2746C99.6184 48.1787 99.8421 48.1787 100.029 48.2533L100.359 48.4504L100.369 48.4611C100.593 48.6954 100.689 49.0363 100.545 49.3879L100.556 49.3826Z" fill="url(#paint0_linear_2071_23818)"/>
<path d="M27.8998 92.0066L18.5781 70.3057L24.1765 91.2449L27.8998 92.0066Z" fill="#FF8511"/>
<path d="M25.9715 55.5562L6.66227 49.8886L6.4492 49.3825C6.15623 48.6687 6.88599 47.9496 7.59977 48.2692C15.6857 51.7795 22.2269 54.315 25.9715 55.5615V55.5562Z" fill="#FFEFB0"/>
<path d="M53.7928 61.0159L43.3206 65.0269V78.9029L53.7928 82.9459L45.0091 77.4434V66.5237L53.7928 61.0159Z" fill="#FFC870"/>
<path opacity="0.5" d="M53.793 61.0159L63.5621 65.5595L64.2333 78.1518L57.6282 84.0751L53.793 82.9459V61.0159Z" fill="#EF7110"/>
<path d="M6.37999 52.9834C8.71876 52.9834 10.6147 51.0874 10.6147 48.7486C10.6147 46.4099 8.71876 44.5139 6.37999 44.5139C4.04121 44.5139 2.14526 46.4099 2.14526 48.7486C2.14526 51.0874 4.04121 52.9834 6.37999 52.9834Z" fill="#FF9810"/>
<path opacity="0.22" d="M92.3901 69.6025C91.0744 73.0383 89.6468 76.4686 88.2193 79.9097C88.1873 79.9896 88.1553 80.0642 88.1234 80.1441C86.6372 83.7236 85.1511 87.2978 83.7821 90.872C83.617 90.9466 83.4039 91.0318 83.1802 91.1064H83.1696C82.818 91.2289 82.4078 91.3514 81.9391 91.4739C81.7793 91.5112 81.6088 91.5539 81.4331 91.5911C80.0748 91.9001 78.3223 92.1824 76.2395 92.4274C75.1902 92.5553 74.0609 92.6671 72.8518 92.7737C72.415 92.811 71.9675 92.8482 71.5201 92.8855C70.8223 92.9494 70.1032 92.9974 69.3628 93.0506C68.665 93.0986 67.9352 93.1359 67.1948 93.1838C66.6994 93.2104 66.1774 93.2371 65.6607 93.2584C65.3891 93.2744 65.1174 93.285 64.8457 93.285C64.1959 93.3223 63.5247 93.3489 62.8429 93.3703C60.5791 93.4448 58.2087 93.4981 55.7531 93.5194C54.9754 93.5354 54.187 93.5354 53.3827 93.5354H53.2762C52.4772 93.5354 51.6835 93.5354 50.9058 93.5194C47.3369 93.4981 43.9385 93.3969 40.8117 93.2477C36.5344 93.0347 32.7577 92.7257 29.7428 92.3369L28.832 92.1398L23.3668 90.9573L22.9353 90.8614C23.0578 90.8827 23.1803 90.9093 23.3028 90.9253C37.5997 93.5886 53.8621 93.2051 65.8365 92.2783C65.8631 92.2783 65.8898 92.273 65.9164 92.273C70.3322 91.932 74.0449 91.3887 76.8255 90.888C80.3464 90.2541 82.3919 89.6842 82.557 89.6522C83.111 89.5723 90.057 75.089 92.1291 70.2364C92.1504 70.1725 92.177 70.1139 92.2036 70.0553C92.2729 69.8902 92.3368 69.741 92.3901 69.6025Z" fill="#A33A09"/>
<path d="M24.9648 97.5942H24.9542L23.8036 95.8684L20.9485 90.856C21.2787 91.3034 22.0511 91.7242 23.2283 92.1131L23.239 92.1237L24.9648 97.5942Z" fill="url(#paint1_linear_2071_23818)"/>
<path d="M25.4763 92.7417C25.9823 92.8536 28.374 98.159 28.374 98.159L39.2192 99.4587L41.5576 94.6433C36.1936 94.0095 30.8349 93.3756 25.4709 92.7417H25.4763Z" fill="#FFC870"/>
<path d="M28.896 93.1464C28.896 93.1464 30.0785 96.8645 30.3768 96.7633C30.6751 96.6621 38.5693 96.7633 38.5693 96.7633L35.7408 94.2224L28.896 93.1411V93.1464Z" fill="#FFEFB0"/>
<path d="M86.0567 91.1171L82.818 96.8913L82.5251 97.3973V97.408C81.1295 98.7929 74.7428 99.9541 65.9963 100.519L68.4946 94.4943L68.6331 94.4463C70.6306 94.3078 72.4949 94.1427 74.2314 93.9509C80.405 93.2478 84.7516 92.2464 86.0513 91.1118L86.0567 91.1171Z" fill="#EF7110"/>
<path d="M68.6331 94.4517L66.3693 100.497C66.2521 100.508 66.1242 100.508 65.9911 100.519C65.3572 100.567 64.7233 100.599 64.0681 100.625L66.1349 94.6168L66.1935 94.4517H68.6331Z" fill="#FFC870"/>
<path style="mix-blend-mode:luminosity" opacity="0.6" d="M5.2933 51.5824C7.03487 51.5824 8.4467 50.0632 8.4467 48.1892C8.4467 46.3153 7.03487 44.7961 5.2933 44.7961C3.55172 44.7961 2.13989 46.3153 2.13989 48.1892C2.13989 50.0632 3.55172 51.5824 5.2933 51.5824Z" fill="url(#paint2_linear_2071_23818)"/>
<path style="mix-blend-mode:luminosity" opacity="0.6" d="M54.4055 22.2642C54.1019 22.7116 41.5628 94.6433 41.5628 94.6433L33.5195 60.92L40.1832 50.6341L54.4055 22.2642Z" fill="url(#paint3_linear_2071_23818)"/>
<path d="M53.8516 22.6584C55.4017 27.7028 57.5749 33.4929 60.6484 39.6826C64.4197 47.2678 68.5692 53.4681 72.3086 58.3207C72.266 58.4166 70.2578 62.907 70.2578 62.907L58.4485 39.2032C58.4485 39.2032 57.9372 45.217 57.5909 44.5139C57.25 43.8108 52.0671 26.9198 52.0671 26.9198L53.8463 22.6584H53.8516Z" fill="url(#paint4_linear_2071_23818)"/>
<path d="M53.3558 24.2934C55.6946 24.2934 57.5905 22.3975 57.5905 20.0587C57.5905 17.7199 55.6946 15.824 53.3558 15.824C51.017 15.824 49.1211 17.7199 49.1211 20.0587C49.1211 22.3975 51.017 24.2934 53.3558 24.2934Z" fill="#FF9810"/>
<path d="M53.8514 24.2617C53.6863 24.283 53.5211 24.2989 53.356 24.2989C51.0069 24.2989 49.116 22.3973 49.116 20.0589C49.116 17.7205 51.0069 15.8188 53.356 15.8188C53.5211 15.8188 53.6863 15.8295 53.8514 15.8561C51.7527 16.1012 50.1174 17.8963 50.1174 20.0589C50.1174 22.2215 51.7474 24.0166 53.8514 24.2617Z" fill="#EF7110"/>
<path d="M52.8606 15.8561C53.0257 15.8348 53.1909 15.8188 53.356 15.8188C55.7051 15.8188 57.596 17.7205 57.596 20.0589C57.596 22.3973 55.7051 24.2989 53.356 24.2989C53.1909 24.2989 53.0257 24.2883 52.8606 24.2617C54.9593 24.0166 56.5946 22.2215 56.5946 20.0589C56.5946 17.8963 54.9646 16.1012 52.8606 15.8561Z" fill="#FFC870"/>
<path style="mix-blend-mode:luminosity" opacity="0.6" d="M52.8607 22.845C54.6023 22.845 56.0141 21.3259 56.0141 19.4519C56.0141 17.578 54.6023 16.0588 52.8607 16.0588C51.1191 16.0588 49.7073 17.578 49.7073 19.4519C49.7073 21.3259 51.1191 22.845 52.8607 22.845Z" fill="url(#paint5_linear_2071_23818)"/>
<path d="M53.8569 61.0164L45.0679 66.5242V77.4439L53.8569 82.9464L62.63 77.4439V66.5242L53.8569 61.0164Z" fill="#1E114C"/>
<path d="M53.857 61.7195V64.8356L48.1521 68.4098L45.6646 66.8544L53.857 61.7195Z" fill="#4A28CC"/>
<path d="M62.0334 66.8544L59.5512 68.4098L53.8569 64.8356V61.7195L62.0334 66.8544Z" fill="#281D93"/>
<path d="M62.0335 66.8545V77.1137L59.5513 75.5583V68.4099L62.0335 66.8545Z" fill="#1B187A"/>
<path d="M62.0334 77.1135L53.8569 82.2484V79.127L59.5512 75.5581L62.0334 77.1135Z" fill="#13135E"/>
<path d="M53.857 79.127V82.2484L45.6646 77.1135L48.1521 75.5581L53.857 79.127Z" fill="#1B187A"/>
<path d="M48.1521 68.4099V75.5583L45.6646 77.1137V66.8545L48.1521 68.4099Z" fill="#281D93"/>
<path d="M59.5512 68.4099V75.5583L53.857 79.1272L48.1521 75.5583V68.4099L53.857 64.8357L59.5512 68.4099Z" fill="#6543E5"/>
<path style="mix-blend-mode:screen" opacity="0.6" d="M45.6646 66.8544L48.1521 68.4098L53.857 64.8356L49.1908 67.2752L53.8517 63.6264L53.857 61.7195L45.6646 66.8544Z" fill="url(#paint6_linear_2071_23818)"/>
<path style="mix-blend-mode:screen" opacity="0.6" d="M62.0334 66.8544L59.4287 68.3299L55.0075 65.5601L59.2475 68.5377L59.3008 75.2547L53.8569 79.1272L59.5512 75.5583V68.5643L62.0334 66.8544Z" fill="url(#paint7_linear_2071_23818)"/>
<path style="mix-blend-mode:luminosity" opacity="0.3" d="M53.2923 72.8737C48.6847 73.2892 48.6102 70.1837 48.1467 68.4046L53.8463 62.9021C54.3683 63.7277 55.4816 65.8478 55.8225 66.9664C56.8506 70.3328 54.9489 72.7245 53.2923 72.8737Z" fill="url(#paint8_linear_2071_23818)"/>
<path style="mix-blend-mode:overlay" opacity="0.2" d="M49.8034 76.5917L45.6646 66.8545C46.2185 70.6205 46.7725 74.3864 47.3265 78.1524L49.8034 76.5917Z" fill="url(#paint9_linear_2071_23818)"/>
<path style="mix-blend-mode:overlay" opacity="0.2" d="M48.1042 71.3236L53.8571 64.8357C51.1298 65.5069 48.3972 66.178 45.6699 66.8492L48.1042 71.3236Z" fill="url(#paint10_linear_2071_23818)"/>
<path style="mix-blend-mode:overlay" opacity="0.2" d="M53.8569 61.7195L59.4287 68.3299L53.8569 64.8356L48.0295 65.3683L53.8569 61.7195Z" fill="url(#paint11_linear_2071_23818)"/>
<path style="mix-blend-mode:overlay" opacity="0.2" d="M53.857 82.2484L48.1521 75.5581L53.857 79.127V82.2484Z" fill="url(#paint12_linear_2071_23818)"/>
<path opacity="0.25" d="M53.1377 30.6326L56.1153 55.5562L45.6643 66.8541L53.8568 64.8353L59.551 75.5579L63.1092 59.4234L53.1377 30.6326Z" fill="#FFEFB0"/>
<path opacity="0.25" d="M9.93823 53.2764L22.9354 90.8615L27.8999 92.0068L12.4844 54.0328L9.93823 53.2764Z" fill="#FFEFB0"/>
<path d="M25.4761 92.7417C25.4761 92.7417 45.3446 97.6636 72.905 94.6433L73.1447 94.1852C73.1447 94.1852 46.7935 96.7687 25.4761 92.7417Z" fill="url(#paint13_linear_2071_23818)"/>
<path d="M26.5149 97.5356C26.5149 97.5356 40.0873 99.6823 56.7705 99.4586C56.7705 99.4586 50.7194 99.7942 39.5973 99.8634L26.5149 97.5356Z" fill="url(#paint14_linear_2071_23818)"/>
<path opacity="0.36" d="M85.556 92.0068C85.556 92.0068 81.2947 97.3974 81.0922 97.3974C80.8898 97.3974 68.6384 98.7025 68.6384 98.7025L75.5898 96.1031L78.7165 95.629L85.5613 92.0122L85.556 92.0068Z" fill="url(#paint15_linear_2071_23818)"/>
<defs>
<linearGradient id="paint0_linear_2071_23818" x1="6.38523" y1="39.2033" x2="100.62" y2="39.2033" gradientUnits="userSpaceOnUse">
<stop stop-color="#FFD31F"/>
<stop offset="0.96" stop-color="#FFD31F"/>
<stop offset="1" stop-color="#FFD621"/>
</linearGradient>
<linearGradient id="paint1_linear_2071_23818" x1="20.9485" y1="94.2278" x2="24.9648" y2="94.2278" gradientUnits="userSpaceOnUse">
<stop stop-color="#FFD31F"/>
<stop offset="0.96" stop-color="#FFD31F"/>
<stop offset="1" stop-color="#FFD621"/>
</linearGradient>
<linearGradient id="paint2_linear_2071_23818" x1="6.29471" y1="47.2464" x2="1.64984" y2="51.6409" gradientUnits="userSpaceOnUse">
<stop stop-color="#FECD00" stop-opacity="0.4"/>
<stop offset="0.05" stop-color="#FECF12" stop-opacity="0.45"/>
<stop offset="0.36" stop-color="#FEE285" stop-opacity="0.74"/>
<stop offset="0.58" stop-color="#FEEDCD" stop-opacity="0.93"/>
<stop offset="0.68" stop-color="#FFF2EA"/>
</linearGradient>
<linearGradient id="paint3_linear_2071_23818" x1="51.7422" y1="57.6601" x2="62.2198" y2="55.4441" gradientUnits="userSpaceOnUse">
<stop stop-color="#FECD00" stop-opacity="0.4"/>
<stop offset="0.06" stop-color="#FECE07" stop-opacity="0.42"/>
<stop offset="0.16" stop-color="#FED11A" stop-opacity="0.47"/>
<stop offset="0.27" stop-color="#FED63A" stop-opacity="0.55"/>
<stop offset="0.39" stop-color="#FEDD67" stop-opacity="0.67"/>
<stop offset="0.53" stop-color="#FEE6A0" stop-opacity="0.81"/>
<stop offset="0.67" stop-color="#FEF1E5" stop-opacity="0.99"/>
<stop offset="0.68" stop-color="#FFF2EA"/>
</linearGradient>
<linearGradient id="paint4_linear_2071_23818" x1="61.4901" y1="43.4272" x2="75.5792" y2="27.2447" gradientUnits="userSpaceOnUse">
<stop stop-color="#FECD00" stop-opacity="0.4"/>
<stop offset="0.06" stop-color="#FECE07" stop-opacity="0.42"/>
<stop offset="0.16" stop-color="#FED11A" stop-opacity="0.47"/>
<stop offset="0.27" stop-color="#FED63A" stop-opacity="0.55"/>
<stop offset="0.39" stop-color="#FEDD67" stop-opacity="0.67"/>
<stop offset="0.53" stop-color="#FEE6A0" stop-opacity="0.81"/>
<stop offset="0.67" stop-color="#FEF1E5" stop-opacity="0.99"/>
<stop offset="0.68" stop-color="#FFF2EA"/>
</linearGradient>
<linearGradient id="paint5_linear_2071_23818" x1="52.2481" y1="15.947" x2="53.2975" y2="21.9395" gradientUnits="userSpaceOnUse">
<stop stop-color="#FECD00" stop-opacity="0.4"/>
<stop offset="0.06" stop-color="#FECE07" stop-opacity="0.42"/>
<stop offset="0.16" stop-color="#FED11A" stop-opacity="0.47"/>
<stop offset="0.27" stop-color="#FED63A" stop-opacity="0.55"/>
<stop offset="0.39" stop-color="#FEDD67" stop-opacity="0.67"/>
<stop offset="0.53" stop-color="#FEE6A0" stop-opacity="0.81"/>
<stop offset="0.67" stop-color="#FEF1E5" stop-opacity="0.99"/>
<stop offset="0.68" stop-color="#FFF2EA"/>
</linearGradient>
<linearGradient id="paint6_linear_2071_23818" x1="55.4923" y1="61.4212" x2="46.5648" y2="68.3139" gradientUnits="userSpaceOnUse">
<stop stop-color="#FECD00" stop-opacity="0.4"/>
<stop offset="0.13" stop-color="#FECD02" stop-opacity="0.41"/>
<stop offset="0.22" stop-color="#FECE0C" stop-opacity="0.43"/>
<stop offset="0.3" stop-color="#FED01C" stop-opacity="0.47"/>
<stop offset="0.38" stop-color="#FED332" stop-opacity="0.53"/>
<stop offset="0.45" stop-color="#FED74F" stop-opacity="0.6"/>
<stop offset="0.52" stop-color="#FEDC72" stop-opacity="0.69"/>
<stop offset="0.58" stop-color="#FEE29D" stop-opacity="0.8"/>
<stop offset="0.65" stop-color="#FEE9CC" stop-opacity="0.93"/>
<stop offset="0.68" stop-color="#FEEDEA"/>
</linearGradient>
<linearGradient id="paint7_linear_2071_23818" x1="63.7539" y1="65.5601" x2="50.7781" y2="75.5743" gradientUnits="userSpaceOnUse">
<stop stop-color="#FECD00" stop-opacity="0.4"/>
<stop offset="0.13" stop-color="#FECD02" stop-opacity="0.41"/>
<stop offset="0.22" stop-color="#FECE0C" stop-opacity="0.43"/>
<stop offset="0.3" stop-color="#FED01C" stop-opacity="0.47"/>
<stop offset="0.38" stop-color="#FED332" stop-opacity="0.53"/>
<stop offset="0.45" stop-color="#FED74F" stop-opacity="0.6"/>
<stop offset="0.52" stop-color="#FEDC72" stop-opacity="0.69"/>
<stop offset="0.58" stop-color="#FEE29D" stop-opacity="0.8"/>
<stop offset="0.65" stop-color="#FEE9CC" stop-opacity="0.93"/>
<stop offset="0.68" stop-color="#FEEDEA"/>
</linearGradient>
<linearGradient id="paint8_linear_2071_23818" x1="49.2547" y1="64.596" x2="56.4937" y2="72.9589" gradientUnits="userSpaceOnUse">
<stop stop-color="#FECD00" stop-opacity="0.4"/>
<stop offset="0.13" stop-color="#FECD02" stop-opacity="0.41"/>
<stop offset="0.22" stop-color="#FECE0C" stop-opacity="0.43"/>
<stop offset="0.3" stop-color="#FED01C" stop-opacity="0.47"/>
<stop offset="0.38" stop-color="#FED332" stop-opacity="0.53"/>
<stop offset="0.45" stop-color="#FED74F" stop-opacity="0.6"/>
<stop offset="0.52" stop-color="#FEDC72" stop-opacity="0.69"/>
<stop offset="0.58" stop-color="#FEE29D" stop-opacity="0.8"/>
<stop offset="0.65" stop-color="#FEE9CC" stop-opacity="0.93"/>
<stop offset="0.68" stop-color="#FEEDEA"/>
</linearGradient>
<linearGradient id="paint9_linear_2071_23818" x1="50.7973" y1="82.7257" x2="45.9332" y2="71.07" gradientUnits="userSpaceOnUse">
<stop offset="0.38" stop-color="white"/>
<stop offset="0.56" stop-color="#FDFDFE" stop-opacity="0.99"/>
<stop offset="0.63" stop-color="#F9F8FA" stop-opacity="0.97"/>
<stop offset="0.68" stop-color="#F2EEF4" stop-opacity="0.93"/>
<stop offset="0.72" stop-color="#E8E1EC" stop-opacity="0.88"/>
<stop offset="0.75" stop-color="#DBCFE1" stop-opacity="0.8"/>
<stop offset="0.78" stop-color="#CBBAD3" stop-opacity="0.71"/>
<stop offset="0.81" stop-color="#B8A0C3" stop-opacity="0.61"/>
<stop offset="0.83" stop-color="#A182B0" stop-opacity="0.48"/>
<stop offset="0.86" stop-color="#89629B" stop-opacity="0.35"/>
<stop offset="0.88" stop-color="#6F3F85" stop-opacity="0.2"/>
</linearGradient>
<linearGradient id="paint10_linear_2071_23818" x1="45.851" y1="69.8321" x2="51.0659" y2="66.0821" gradientUnits="userSpaceOnUse">
<stop offset="0.38" stop-color="white"/>
<stop offset="0.56" stop-color="#FDFDFE" stop-opacity="0.99"/>
<stop offset="0.63" stop-color="#F9F8FA" stop-opacity="0.97"/>
<stop offset="0.68" stop-color="#F2EEF4" stop-opacity="0.93"/>
<stop offset="0.72" stop-color="#E8E1EC" stop-opacity="0.88"/>
<stop offset="0.75" stop-color="#DBCFE1" stop-opacity="0.8"/>
<stop offset="0.78" stop-color="#CBBAD3" stop-opacity="0.71"/>
<stop offset="0.81" stop-color="#B8A0C3" stop-opacity="0.61"/>
<stop offset="0.83" stop-color="#A182B0" stop-opacity="0.48"/>
<stop offset="0.86" stop-color="#89629B" stop-opacity="0.35"/>
<stop offset="0.88" stop-color="#6F3F85" stop-opacity="0.2"/>
</linearGradient>
<linearGradient id="paint11_linear_2071_23818" x1="57.6176" y1="71.494" x2="50.9805" y2="63.5678" gradientUnits="userSpaceOnUse">
<stop offset="0.38" stop-color="white"/>
<stop offset="0.56" stop-color="#FDFDFE" stop-opacity="0.99"/>
<stop offset="0.63" stop-color="#F9F8FA" stop-opacity="0.97"/>
<stop offset="0.68" stop-color="#F2EEF4" stop-opacity="0.93"/>
<stop offset="0.72" stop-color="#E8E1EC" stop-opacity="0.88"/>
<stop offset="0.75" stop-color="#DBCFE1" stop-opacity="0.8"/>
<stop offset="0.78" stop-color="#CBBAD3" stop-opacity="0.71"/>
<stop offset="0.81" stop-color="#B8A0C3" stop-opacity="0.61"/>
<stop offset="0.83" stop-color="#A182B0" stop-opacity="0.48"/>
<stop offset="0.86" stop-color="#89629B" stop-opacity="0.35"/>
<stop offset="0.88" stop-color="#6F3F85" stop-opacity="0.2"/>
</linearGradient>
<linearGradient id="paint12_linear_2071_23818" x1="53.9156" y1="80.7516" x2="49.308" y2="75.6859" gradientUnits="userSpaceOnUse">
<stop offset="0.38" stop-color="white"/>
<stop offset="0.56" stop-color="#FDFDFE" stop-opacity="0.99"/>
<stop offset="0.63" stop-color="#F9F8FA" stop-opacity="0.97"/>
<stop offset="0.68" stop-color="#F2EEF4" stop-opacity="0.93"/>
<stop offset="0.72" stop-color="#E8E1EC" stop-opacity="0.88"/>
<stop offset="0.75" stop-color="#DBCFE1" stop-opacity="0.8"/>
<stop offset="0.78" stop-color="#CBBAD3" stop-opacity="0.71"/>
<stop offset="0.81" stop-color="#B8A0C3" stop-opacity="0.61"/>
<stop offset="0.83" stop-color="#A182B0" stop-opacity="0.48"/>
<stop offset="0.86" stop-color="#89629B" stop-opacity="0.35"/>
<stop offset="0.88" stop-color="#6F3F85" stop-opacity="0.2"/>
</linearGradient>
<linearGradient id="paint13_linear_2071_23818" x1="25.4761" y1="94.1852" x2="73.1447" y2="94.1852" gradientUnits="userSpaceOnUse">
<stop stop-color="#FFD31F"/>
<stop offset="0.96" stop-color="#FFD31F"/>
<stop offset="1" stop-color="#FFD621"/>
</linearGradient>
<linearGradient id="paint14_linear_2071_23818" x1="26.5149" y1="98.7022" x2="56.7705" y2="98.7022" gradientUnits="userSpaceOnUse">
<stop stop-color="#FFD31F"/>
<stop offset="0.96" stop-color="#FFD31F"/>
<stop offset="1" stop-color="#FFD621"/>
</linearGradient>
<linearGradient id="paint15_linear_2071_23818" x1="68.6331" y1="95.3573" x2="85.556" y2="95.3573" gradientUnits="userSpaceOnUse">
<stop stop-color="#FFD31F"/>
<stop offset="0.96" stop-color="#FFD31F"/>
<stop offset="1" stop-color="#FFD621"/>
</linearGradient>
</defs>
</svg>
