<svg fill="none" height="14" viewBox="0 0 14 14" width="14" xmlns="http://www.w3.org/2000/svg">
    <path
        d="M6.38169 3.54669C6.58631 3.51533 6.79302 3.49973 7.00003 3.50003C8.85503 3.50003 10.5992 4.83586 11.6142 7.00003C11.459 7.32937 11.2836 7.64886 11.0892 7.95669C11.0275 8.05225 10.995 8.16377 10.9959 8.27753C10.9972 8.40483 11.0401 8.52822 11.118 8.62885C11.196 8.72949 11.3048 8.80186 11.4277 8.83491C11.5507 8.86796 11.6811 8.85988 11.799 8.8119C11.9169 8.76393 12.0159 8.67869 12.0809 8.56919C12.3526 8.14215 12.5887 7.69341 12.7867 7.22753C12.818 7.15474 12.8341 7.07634 12.8341 6.99711C12.8341 6.91788 12.818 6.83948 12.7867 6.76669C11.6084 4.03086 9.39169 2.33336 7.00003 2.33336C6.72625 2.33198 6.45291 2.35541 6.18336 2.40336C6.10676 2.41638 6.03347 2.44437 5.96768 2.48571C5.90189 2.52706 5.84489 2.58096 5.79993 2.64434C5.75497 2.70771 5.72293 2.77932 5.70565 2.85508C5.68836 2.93084 5.68617 3.00926 5.69919 3.08586C5.71222 3.16246 5.7402 3.23575 5.78155 3.30154C5.82289 3.36733 5.87679 3.42433 5.94017 3.46929C6.00354 3.51425 6.07516 3.54629 6.15091 3.56357C6.22667 3.58086 6.30509 3.58305 6.38169 3.57003V3.54669ZM2.16419 1.33586C2.1098 1.28147 2.04523 1.23833 1.97417 1.20889C1.90311 1.17946 1.82694 1.16431 1.75003 1.16431C1.67311 1.16431 1.59694 1.17946 1.52588 1.20889C1.45482 1.23833 1.39025 1.28147 1.33586 1.33586C1.22602 1.4457 1.16431 1.59468 1.16431 1.75003C1.16431 1.90537 1.22602 2.05435 1.33586 2.16419L3.14419 3.96669C2.31911 4.76092 1.66244 5.71319 1.21336 6.76669C1.18124 6.84029 1.16466 6.91973 1.16466 7.00003C1.16466 7.08033 1.18124 7.15976 1.21336 7.23336C2.39169 9.96919 4.60836 11.6667 7.00003 11.6667C8.04834 11.6595 9.07189 11.3473 9.94586 10.7684L11.8359 12.6642C11.8901 12.7189 11.9546 12.7623 12.0257 12.7919C12.0968 12.8215 12.173 12.8367 12.25 12.8367C12.327 12.8367 12.4033 12.8215 12.4744 12.7919C12.5454 12.7623 12.61 12.7189 12.6642 12.6642C12.7189 12.61 12.7623 12.5454 12.7919 12.4744C12.8215 12.4033 12.8367 12.327 12.8367 12.25C12.8367 12.173 12.8215 12.0968 12.7919 12.0257C12.7623 11.9546 12.7189 11.8901 12.6642 11.8359L2.16419 1.33586ZM5.87419 6.69669L7.30336 8.12586C7.20477 8.15413 7.10258 8.16789 7.00003 8.16669C6.69061 8.16669 6.39386 8.04378 6.17507 7.82498C5.95628 7.60619 5.83336 7.30945 5.83336 7.00003C5.83217 6.89747 5.84592 6.79528 5.87419 6.69669ZM7.00003 10.5C5.14503 10.5 3.40086 9.16419 2.39169 7.00003C2.76858 6.16805 3.30349 5.4172 3.96669 4.78919L4.99919 5.83336C4.75667 6.27599 4.66421 6.78533 4.73568 7.28496C4.80715 7.78459 5.03869 8.24758 5.39558 8.60447C5.75247 8.96136 6.21546 9.19291 6.71509 9.26438C7.21473 9.33584 7.72406 9.24338 8.16669 9.00086L9.09419 9.91669C8.459 10.2905 7.73702 10.4916 7.00003 10.5Z"
        fill="#A7B1BC" />
</svg>
