<svg width="16" height="18" viewBox="0 0 16 18" fill="none" xmlns="http://www.w3.org/2000/svg">
<path d="M3.78125 7.38281C2.90888 7.38281 2.19922 8.09248 2.19922 8.96484V13.2539C2.19922 14.1263 2.90888 14.8359 3.78125 14.8359C4.65362 14.8359 5.36328 14.1263 5.36328 13.2539V8.96484C5.36328 8.09248 4.65362 7.38281 3.78125 7.38281Z" fill="#1C2127"/>
<path d="M1.14453 8.96472C1.14453 8.8126 1.16461 8.66565 1.18946 8.52056C0.553906 8.72597 0.0898438 9.31632 0.0898438 10.0194V12.1991C0.0898438 12.9022 0.553906 13.4925 1.18946 13.6979C1.16461 13.5529 1.14453 13.4059 1.14453 13.2538V8.96472Z" fill="#1C2127"/>
<path d="M12.2188 7.38281C11.3464 7.38281 10.6367 8.09248 10.6367 8.96484V13.2539C10.6367 14.1263 11.3464 14.8359 12.2188 14.8359C12.3773 14.8359 12.5275 14.8054 12.672 14.7618C12.4757 15.4125 11.8779 15.8906 11.1641 15.8906H9.48489C9.26647 15.2781 8.6866 14.8359 8 14.8359C7.12763 14.8359 6.41797 15.5456 6.41797 16.418C6.41797 17.2903 7.12763 18 8 18C8.6866 18 9.26647 17.5578 9.48489 16.9453H11.1641C12.6179 16.9453 13.8008 15.7624 13.8008 14.3086V8.96484C13.8008 8.09248 13.0911 7.38281 12.2188 7.38281Z" fill="#1C2127"/>
<path d="M14.8105 8.52056C14.8354 8.66565 14.8555 8.8126 14.8555 8.96472V13.2538C14.8555 13.4059 14.8354 13.5529 14.8105 13.6979C15.4461 13.4925 15.9102 12.9022 15.9102 12.1991V10.0194C15.9102 9.31632 15.4461 8.72597 14.8105 8.52056Z" fill="#1C2127"/>
<path d="M8 0C3.63809 0 0.0898438 3.54825 0.0898438 7.91016V7.92362C0.404035 7.68575 0.767551 7.5117 1.16868 7.43375C1.41516 3.87601 4.3808 1.05469 8 1.05469C11.6192 1.05469 14.5848 3.87601 14.8313 7.43372C15.2324 7.51166 15.5959 7.68575 15.9102 7.92359V7.91016C15.9102 3.54825 12.3619 0 8 0Z" fill="#1C2127"/>
</svg>
