<svg width="98" height="25" viewBox="0 0 98 25" fill="none" xmlns="http://www.w3.org/2000/svg">
<g clip-path="url(#clip0_2025_23758)">
<path d="M19.8447 13.4245C19.0377 13.3684 18.2268 13.3109 17.4185 13.3095C15.8869 13.3054 14.3526 13.3328 12.821 13.3657C11.9915 13.3848 11.1633 13.4286 10.3364 13.493C9.33436 13.5724 8.33496 13.675 7.33556 13.7859C4.91602 14.0528 2.52966 14.5046 0.176477 15.1438C0.168514 15.1466 0.160551 15.1493 0.152588 15.1521C0.191078 15.3437 0.236203 15.5354 0.282656 15.7256C0.909108 15.7544 1.53423 15.7845 2.16201 15.8091C2.73803 15.8324 3.31272 15.8488 3.88874 15.8748C4.71693 15.9118 5.5438 15.9556 6.37199 15.9898C6.96659 16.0145 7.56251 16.0282 8.15711 16.0528C9.08352 16.0911 10.0099 16.1322 10.935 16.1705C11.4712 16.1938 12.0074 16.2116 12.5436 16.2348C13.47 16.2732 14.3951 16.3142 15.3202 16.3512C15.8962 16.3745 16.4709 16.3923 17.0469 16.4142C18.0516 16.4525 19.055 16.4936 20.0597 16.5319C20.4101 16.5456 20.7605 16.5565 21.1135 16.5661C21.8754 16.5867 22.6359 16.6072 23.3964 16.6195C23.4295 16.6209 23.4587 16.6209 23.4826 16.6195C23.7826 15.7215 23.983 14.777 24.0746 13.7982C23.7746 13.7613 23.4747 13.7216 23.1721 13.6942C22.0625 13.6011 20.9543 13.5026 19.8447 13.4245Z" fill="#2764FF"/>
<path d="M23.638 9.06202C23.5995 9.05517 23.553 9.0538 23.4973 9.0497C22.1355 8.95661 20.7738 8.85531 19.4107 8.78276C18.2414 8.72253 17.0695 8.68147 15.8989 8.66504C14.8557 8.64998 13.8098 8.67736 12.7653 8.69105C12.4229 8.69515 12.0818 8.70337 11.742 8.7239C10.7678 8.77866 9.79363 8.82246 8.82077 8.90322C7.49885 9.01547 6.17825 9.13868 4.86032 9.29336C3.84233 9.41382 2.83098 9.58493 1.81963 9.7492C1.25689 9.84091 0.69945 9.95864 0.140686 10.075C0.0849424 10.3611 0.0371624 10.6527 0 10.947C1.55684 10.9976 23.5145 11.6889 24.1012 11.7026C24.0388 10.7909 23.8822 9.90662 23.638 9.06202Z" fill="#2764FF"/>
<path d="M20.9954 4.22174C20.7486 4.20668 20.5043 4.17656 20.2575 4.16835C19.0577 4.13276 17.8578 4.09169 16.658 4.07937C15.7117 4.06842 14.7641 4.08758 13.8191 4.10675C12.9604 4.12728 12.1016 4.1396 11.2456 4.20394C10.002 4.29839 8.75968 4.42433 7.5174 4.55711C5.81722 4.73918 2.63983 5.42088 2.00409 5.55914C1.84747 5.79322 1.70015 6.03277 1.56079 6.2778C4.24445 6.37773 21.2237 6.97457 22.8588 7.02659C22.3651 6.00403 21.7347 5.06086 20.9954 4.22174Z" fill="#2764FF"/>
<path d="M21.0432 18.6455C19.7439 18.5141 18.4419 18.3334 17.1385 18.2937C15.1888 18.2362 13.2325 18.2321 11.2841 18.3758C10.0777 18.4648 8.87519 18.5935 7.67404 18.729C5.83716 18.9357 4.02814 19.2957 2.23903 19.7666C2.20054 19.7762 2.16471 19.7872 2.12622 19.7981C2.24567 19.9706 2.36778 20.1403 2.49652 20.306C2.76329 20.3115 3.03006 20.3238 3.29684 20.3334C3.83304 20.3539 4.36924 20.3731 4.90411 20.3977C5.7124 20.4347 6.52201 20.4785 7.33029 20.5127C7.93418 20.5373 8.53807 20.551 9.14329 20.5756C10.225 20.6222 11.3053 20.6769 12.387 20.7221C13.2643 20.7591 14.143 20.781 15.0203 20.8166C16.1696 20.8631 17.319 20.9192 18.4697 20.9617C19.2873 20.9932 20.1049 21.0055 20.9211 21.0342C21.5117 20.3785 22.032 19.6585 22.4713 18.8837C22.4262 18.87 22.3851 18.8577 22.3426 18.8509C21.9112 18.7783 21.4799 18.6893 21.0432 18.6455Z" fill="#2764FF"/>
<path d="M18.7669 2.11493C18.5493 1.96299 18.3263 1.81925 18.098 1.68373C16.3102 0.61326 14.2305 0 12.0127 0C9.79356 0 7.71379 0.61326 5.92734 1.68373C5.68844 1.82609 5.45485 1.97804 5.22656 2.13547H18.7696V2.11493H18.7669Z" fill="#2764FF"/>
<path d="M6.17043 23.3835C7.8746 24.3499 9.82961 24.9057 11.9094 24.9235H12.1177C14.1975 24.9057 16.1525 24.3499 17.8567 23.3835C18.1699 23.2069 18.4752 23.0152 18.7698 22.8099V22.7866H5.22412C5.52938 23.0015 5.84526 23.2 6.17043 23.3835Z" fill="#2764FF"/>
<path d="M37.0244 6.36279C34.9075 6.36279 33.1409 7.62354 32.4123 9.61116V6.56812H29.5654V20.105H32.4123V13.7301C32.5583 12.3817 33.0732 11.2716 33.9426 10.427C34.8106 9.58652 35.8724 9.15942 37.0987 9.15942C37.4053 9.15942 37.6296 9.1868 37.7902 9.21007L37.8712 9.22239V6.42165L37.8101 6.41207C37.5725 6.37921 37.3151 6.36279 37.0244 6.36279Z" fill="white"/>
<path d="M48.2103 6.7787C47.4418 6.46797 46.6601 6.31055 45.8863 6.31055C45.1139 6.31055 44.3189 6.46797 43.5265 6.7787C41.6976 7.48779 40.4035 8.67051 39.6802 10.2926C38.8507 12.1283 38.8507 14.5951 39.6802 16.4321C40.4062 18.0392 41.7002 19.2123 43.5265 19.9214C44.3202 20.2184 45.1139 20.3704 45.8863 20.3704C46.6588 20.3704 47.4405 20.2198 48.209 19.9214C50.0432 19.2328 51.3452 18.0597 52.0805 16.4321C52.91 14.5964 52.91 12.1283 52.0805 10.294C51.3372 8.62807 50.0711 7.47821 48.2103 6.7787ZM48.6854 16.5799C47.8851 17.3534 46.9415 17.7449 45.8797 17.7449C44.8099 17.7449 43.8835 17.3643 43.0487 16.5799C42.2324 15.7915 41.8184 14.7087 41.8184 13.3631C41.8184 11.9805 42.2205 10.9196 43.0474 10.1202C43.9021 9.31799 44.8285 8.92923 45.8797 8.92923C46.9242 8.92923 47.8679 9.33031 48.6868 10.1202C49.5309 10.9114 49.941 11.9723 49.941 13.3631C49.941 14.7361 49.5309 15.7874 48.6854 16.5799Z" fill="white"/>
<path d="M60.5654 6.3107C59.0191 6.3107 57.4636 6.91985 56.1868 8.02728C54.8384 9.19631 54.0327 11.1812 54.0327 13.3372C54.0327 15.4918 54.8384 17.4767 56.1868 18.6471C57.4636 19.7545 59.0191 20.3637 60.5654 20.3637C62.7473 20.3637 64.3546 19.103 64.9412 17.9175H64.9771V25.0001H67.824V6.271L64.9187 8.71036C64.3108 7.53722 62.7181 6.3107 60.5654 6.3107ZM60.9158 17.745C59.8288 17.745 58.8585 17.3535 58.0343 16.5801C57.2075 15.7807 56.8053 14.7198 56.8053 13.3372C56.8053 11.9546 57.2075 10.8937 58.0343 10.0943C58.8585 9.32088 59.8288 8.92937 60.9158 8.92937C62.028 8.92937 62.9968 9.32088 63.7972 10.0943C64.6413 10.8855 65.0514 11.9464 65.0514 13.3372C65.0514 14.728 64.6413 15.7875 63.7972 16.5801C62.9968 17.3521 62.028 17.745 60.9158 17.745Z" fill="white"/>
<path d="M76.3027 6.3107C74.7564 6.3107 73.2009 6.91985 71.9241 8.02728C70.5757 9.19631 69.77 11.1812 69.77 13.3372C69.77 15.4918 70.5757 17.4767 71.9241 18.6471C73.2009 19.7545 74.7564 20.3637 76.3027 20.3637C78.4846 20.3637 80.0919 19.103 80.6785 17.9175H80.7144V25.0001H83.5613V6.271L80.656 8.71036C80.0494 7.53722 78.4554 6.3107 76.3027 6.3107ZM76.653 17.745C75.566 17.745 74.5958 17.3535 73.7716 16.5801C72.9448 15.7807 72.5426 14.7198 72.5426 13.3372C72.5426 11.9546 72.9448 10.8937 73.7716 10.0943C74.5958 9.32088 75.566 8.92937 76.653 8.92937C77.7653 8.92937 78.7341 9.32088 79.5358 10.0943C80.3799 10.8855 80.79 11.9464 80.79 13.3372C80.79 14.728 80.3799 15.7889 79.5358 16.5801C78.7341 17.3521 77.7653 17.745 76.653 17.745Z" fill="white"/>
<path d="M95.1529 6.56778V14.6415C95.0799 15.3163 94.7162 16.0213 94.0698 16.7372C93.4527 17.4217 92.6444 17.7694 91.6676 17.7694C89.767 17.7694 88.6335 16.4484 88.6335 14.2377V6.56778H85.7866V14.3923C85.7866 16.3348 86.2737 17.8337 87.2346 18.8467C88.1876 19.8528 89.3675 20.3621 90.7412 20.3621C93.462 20.3621 94.8728 18.3032 95.2498 17.3806L97.9998 19.8419V6.56641H95.1529V6.56778Z" fill="white"/>
</g>
<defs>
<clipPath id="clip0_2025_23758">
<rect width="98" height="25" fill="white"/>
</clipPath>
</defs>
</svg>
