<svg width="21" height="22" viewBox="0 0 21 22" fill="none" xmlns="http://www.w3.org/2000/svg">
<g clip-path="url(#clip0_2074_23990)">
<path d="M17.7351 17.5402L16.4751 16.0402V10.5877C16.4751 9.12518 15.9051 7.75268 14.8701 6.71768C14.3901 6.23768 13.8426 5.86268 13.2276 5.58518C13.1601 4.41518 12.1851 3.49268 11.0001 3.49268C9.81511 3.49268 8.84011 4.42268 8.77261 5.58518C7.86511 5.99018 7.09261 6.62768 6.51511 7.44518C5.87011 8.36768 5.52511 9.45518 5.52511 10.5802V16.0327L4.26511 17.5327C4.06261 17.7727 4.01761 18.1027 4.15261 18.3877C4.28761 18.6727 4.56511 18.8527 4.88011 18.8527H7.78261C8.07511 20.3677 9.42511 21.5077 11.0001 21.5077C12.5751 21.5077 13.9251 20.3677 14.2176 18.8527H17.1201C17.4351 18.8527 17.7126 18.6727 17.8476 18.3877C17.9826 18.1027 17.9376 17.7727 17.7351 17.5327V17.5402ZM11.0001 4.34018C11.6076 4.34018 12.1176 4.73018 12.3126 5.27018C11.8851 5.16518 11.4501 5.11268 11.0001 5.11268C10.5501 5.11268 10.1151 5.16518 9.68761 5.27018C9.87511 4.73018 10.3926 4.34018 11.0001 4.34018ZM8.65261 18.0127V18.8602H13.3551C13.0776 19.9027 12.1176 20.6677 11.0076 20.6677C9.89761 20.6677 8.93761 19.9027 8.66011 18.8602H7.81261V18.0127H4.99261L6.38761 16.3552V10.5877C6.38761 8.68268 7.58011 6.94268 9.36511 6.26768C9.89011 6.06518 10.4451 5.96768 11.0151 5.96768C11.5851 5.96768 12.1401 6.07268 12.6651 6.26768C13.2726 6.50018 13.8201 6.85268 14.2851 7.31768C15.1626 8.19518 15.6426 9.35768 15.6426 10.5877V16.3552L17.0376 18.0127H8.66761H8.65261Z" fill="white"/>
</g>
<circle cx="15" cy="4.5" r="4" fill="#F04438"/>
<defs>
<clipPath id="clip0_2074_23990">
<rect width="18" height="18" fill="white" transform="translate(2 3.5)"/>
</clipPath>
</defs>
</svg>
