<svg width="13" height="13" viewBox="0 0 13 13" fill="none" xmlns="http://www.w3.org/2000/svg">
<g clip-path="url(#clip0_2099_30873)">
<path d="M6.84995 6.7101C7.11674 6.47916 7.33073 6.19354 7.47739 5.87261C7.62405 5.55168 7.69996 5.20295 7.69995 4.8501C7.69995 4.18706 7.43656 3.55117 6.96772 3.08233C6.49888 2.61349 5.86299 2.3501 5.19995 2.3501C4.53691 2.3501 3.90103 2.61349 3.43218 3.08233C2.96334 3.55117 2.69995 4.18706 2.69995 4.8501C2.69995 5.20295 2.77585 5.55168 2.92251 5.87261C3.06918 6.19354 3.28316 6.47916 3.54995 6.7101C2.85002 7.02704 2.25618 7.53886 1.83944 8.18437C1.4227 8.82988 1.20069 9.58175 1.19995 10.3501C1.19995 10.4827 1.25263 10.6099 1.3464 10.7037C1.44017 10.7974 1.56734 10.8501 1.69995 10.8501C1.83256 10.8501 1.95974 10.7974 2.0535 10.7037C2.14727 10.6099 2.19995 10.4827 2.19995 10.3501C2.19995 9.55445 2.51602 8.79139 3.07863 8.22878C3.64124 7.66617 4.4043 7.3501 5.19995 7.3501C5.9956 7.3501 6.75866 7.66617 7.32127 8.22878C7.88388 8.79139 8.19995 9.55445 8.19995 10.3501C8.19995 10.4827 8.25263 10.6099 8.3464 10.7037C8.44017 10.7974 8.56734 10.8501 8.69995 10.8501C8.83256 10.8501 8.95974 10.7974 9.0535 10.7037C9.14727 10.6099 9.19995 10.4827 9.19995 10.3501C9.19922 9.58175 8.9772 8.82988 8.56046 8.18437C8.14372 7.53886 7.54988 7.02704 6.84995 6.7101V6.7101ZM5.19995 6.3501C4.90328 6.3501 4.61327 6.26212 4.3666 6.0973C4.11992 5.93248 3.92766 5.69821 3.81413 5.42412C3.7006 5.15003 3.6709 4.84843 3.72877 4.55746C3.78665 4.26649 3.92951 3.99922 4.13929 3.78944C4.34907 3.57966 4.61634 3.4368 4.90732 3.37892C5.19829 3.32104 5.49989 3.35075 5.77398 3.46428C6.04807 3.57781 6.28233 3.77007 6.44716 4.01674C6.61198 4.26342 6.69995 4.55343 6.69995 4.8501C6.69995 5.24792 6.54192 5.62945 6.26061 5.91076C5.97931 6.19206 5.59778 6.3501 5.19995 6.3501ZM10.07 6.5101C10.3899 6.14976 10.599 5.70463 10.6719 5.22827C10.7447 4.75191 10.6784 4.26463 10.4808 3.8251C10.2833 3.38556 9.96285 3.0125 9.55819 2.75081C9.15352 2.48912 8.68185 2.34997 8.19995 2.3501C8.06734 2.3501 7.94017 2.40278 7.8464 2.49654C7.75263 2.59031 7.69995 2.71749 7.69995 2.8501C7.69995 2.98271 7.75263 3.10988 7.8464 3.20365C7.94017 3.29742 8.06734 3.3501 8.19995 3.3501C8.59778 3.3501 8.97931 3.50813 9.26061 3.78944C9.54192 4.07074 9.69995 4.45227 9.69995 4.8501C9.69924 5.11272 9.6296 5.37055 9.49798 5.59781C9.36636 5.82507 9.17739 6.01379 8.94995 6.1451C8.87582 6.18786 8.81391 6.24893 8.77013 6.32247C8.72636 6.39601 8.7022 6.47955 8.69995 6.5651C8.69786 6.64998 8.71742 6.734 8.75678 6.80923C8.79615 6.88446 8.85402 6.94842 8.92495 6.9951L9.11995 7.1251L9.18495 7.1601C9.78765 7.44596 10.2961 7.89809 10.6504 8.46325C11.0048 9.02842 11.1902 9.68307 11.185 10.3501C11.185 10.4827 11.2376 10.6099 11.3314 10.7037C11.4252 10.7974 11.5523 10.8501 11.685 10.8501C11.8176 10.8501 11.9447 10.7974 12.0385 10.7037C12.1323 10.6099 12.185 10.4827 12.185 10.3501C12.189 9.58281 11.9969 8.82722 11.6267 8.15513C11.2565 7.48303 10.7206 6.91675 10.07 6.5101V6.5101Z" fill="#85D1F0"/>
</g>
<defs>
<clipPath id="clip0_2099_30873">
<rect width="12" height="12" fill="white" transform="translate(0.699951 0.600098)"/>
</clipPath>
</defs>
</svg>
