<svg width="17" height="18" viewBox="0 0 17 18" fill="none" xmlns="http://www.w3.org/2000/svg">
<path d="M7.99993 9.91661C5.53438 9.91661 3.52771 7.90995 3.52771 5.44439C3.52771 2.97883 5.53438 0.972168 7.99993 0.972168C10.4655 0.972168 12.4722 2.97883 12.4722 5.44439C12.4722 7.90995 10.4655 9.91661 7.99993 9.91661ZM7.99993 2.13883C6.17993 2.13883 4.69438 3.62439 4.69438 5.44439C4.69438 7.26439 6.17993 8.74995 7.99993 8.74995C9.81993 8.74995 11.3055 7.26439 11.3055 5.44439C11.3055 3.62439 9.81993 2.13883 7.99993 2.13883Z" fill="white"/>
<path d="M1.31893 17.6946C1.00004 17.6946 0.735596 17.4302 0.735596 17.1113C0.735596 13.7902 3.99448 11.0835 8.00004 11.0835C8.78559 11.0835 9.55559 11.1846 10.3023 11.3946C10.6134 11.4802 10.7923 11.7991 10.7067 12.1102C10.6212 12.4213 10.3023 12.6002 9.99115 12.5146C9.35337 12.3357 8.68448 12.2502 8.00004 12.2502C4.64004 12.2502 1.90226 14.4279 1.90226 17.1113C1.90226 17.4302 1.63782 17.6946 1.31893 17.6946Z" fill="white"/>
<path d="M12.6666 17.6946C11.3755 17.6946 10.1622 17.0101 9.50884 15.8979C9.15884 15.3379 8.97217 14.6768 8.97217 14.0001C8.97217 12.8646 9.47772 11.8145 10.3566 11.1145C11.0099 10.5934 11.8344 10.3057 12.6666 10.3057C14.7044 10.3057 16.3611 11.9623 16.3611 14.0001C16.3611 14.6768 16.1744 15.3379 15.8244 15.9057C15.6299 16.2323 15.381 16.5279 15.0855 16.7768C14.4399 17.3679 13.5766 17.6946 12.6666 17.6946ZM12.6666 11.4723C12.0911 11.4723 11.5466 11.6668 11.0877 12.0323C10.4888 12.5068 10.1388 13.2301 10.1388 14.0001C10.1388 14.459 10.2633 14.9101 10.5044 15.299C10.9555 16.0612 11.7877 16.5279 12.6666 16.5279C13.2811 16.5279 13.8722 16.3023 14.3233 15.8979C14.5255 15.7268 14.6966 15.5245 14.821 15.3068C15.0699 14.9101 15.1944 14.459 15.1944 14.0001C15.1944 12.6079 14.0588 11.4723 12.6666 11.4723Z" fill="white"/>
<path d="M12.2232 15.3532C12.0754 15.3532 11.9277 15.2987 11.811 15.1821L11.041 14.4121C10.8154 14.1865 10.8154 13.8131 11.041 13.5876C11.2665 13.362 11.6399 13.362 11.8654 13.5876L12.2388 13.961L13.4832 12.8098C13.7165 12.592 14.0899 12.6076 14.3076 12.841C14.5254 13.0743 14.5099 13.4476 14.2766 13.6654L12.6199 15.1976C12.5032 15.2987 12.3632 15.3532 12.2232 15.3532Z" fill="white"/>
</svg>
