<svg width="104" height="18" viewBox="0 0 104 18" fill="none" xmlns="http://www.w3.org/2000/svg">
<path d="M8.98145 0C10.849 0 12.5821 0.56187 14.0231 1.52843C9.32741 2.17726 5.18596 1.85284 3.698 1.69565C5.1826 0.62876 7.00645 0 8.98145 0Z" fill="white"/>
<path d="M1.23938 4.34786C2.24367 4.01341 4.877 3.21407 7.72865 2.96658C11.3528 2.6522 14.715 2.98331 15.8167 3.1104V3.11374C16.3306 3.70571 16.7673 4.36123 17.1166 5.07361C10.5971 5.06023 3.38232 4.81274 1.02441 4.72244C1.09495 4.59535 1.16549 4.4716 1.23938 4.34786Z" fill="white"/>
<path d="M17.6909 6.58537C17.8521 7.16396 17.9596 7.76931 17.9999 8.38804C15.1046 8.58871 3.22103 8.11379 0.050293 7.97667L0.0738047 7.45493C1.10833 7.1974 3.91295 6.5653 6.95942 6.41479C10.2511 6.25092 16.0753 6.5051 17.6909 6.58537Z" fill="white"/>
<path d="M16.7269 13.6387C16.4548 14.0868 16.1458 14.5082 15.8032 14.8996C15.8032 14.8996 15.8032 14.8996 15.7999 14.8996C12.1354 15.1169 4.17157 14.7758 1.96146 14.6721C1.82711 14.5082 1.69947 14.3377 1.5752 14.1638C2.57613 13.9129 5.3774 13.2674 8.30294 13.1136C11.3729 12.9564 15.4841 13.4681 16.7269 13.6387Z" fill="white"/>
<path d="M13.6503 16.7056C12.2866 17.5284 10.6878 17.9999 8.97817 17.9999C7.22485 17.9999 5.5891 17.5016 4.2019 16.6421C5.96193 16.515 9.39802 16.3712 13.6503 16.7056Z" fill="white"/>
<path d="M13.6503 16.7056C12.2866 17.5284 10.6878 17.9999 8.97817 17.9999C7.22485 17.9999 5.5891 17.5016 4.2019 16.6421" fill="white"/>
<path d="M3.698 1.69565C5.1826 0.62876 7.00645 0 8.98145 0C10.849 0 12.5821 0.56187 14.0231 1.52843" fill="white"/>
<path d="M3.698 1.69554C5.18596 1.85274 9.32741 2.17715 14.0231 1.52832L3.698 1.69554Z" fill="white"/>
<path d="M1.2395 4.35127C2.24379 4.01682 4.87712 3.21415 7.72877 2.97C11.353 2.65562 14.7151 2.98672 15.8168 3.11381V3.11716" fill="white"/>
<path d="M1.02441 4.72217C3.38232 4.80912 10.5971 5.05996 17.1166 5.07334L1.02441 4.72217Z" fill="white"/>
<path d="M0.0739746 7.45493C1.1085 7.1974 3.91312 6.5653 6.95959 6.41479C10.2512 6.25092 16.0755 6.5051 17.6877 6.58537" fill="white"/>
<path d="M0 7.97656C0.0167942 7.97656 0.0335889 7.97991 0.050383 7.97991C3.22112 8.11369 15.1047 8.5886 18 8.39128" fill="white"/>
<path d="M0.164625 10.9999C0.157907 10.9698 0.178059 10.9397 0.208289 10.9331C0.749061 10.8127 5.23647 9.81266 7.53727 9.66884C10.1504 9.50496 15.9679 9.77252 17.7515 9.85279C17.8489 9.85613 17.9228 9.9364 17.9228 10.0334V10.1906C17.9228 10.2341 17.9228 10.2575 17.9194 10.2809C17.859 10.8996 17.7817 11.1739 17.6003 11.719C17.5768 11.7892 17.513 11.8361 17.4391 11.8327C15.978 11.8127 1.9213 11.6755 0.443409 11.5852C0.426614 11.5852 0.413178 11.5785 0.403102 11.5652C0.359437 11.5117 0.231801 11.3311 0.164625 10.9999Z" fill="white"/>
<path d="M1.57861 14.1674C2.57955 13.9165 5.38082 13.271 8.30636 13.1172C11.373 12.9567 15.4842 13.4684 16.727 13.6389" fill="white"/>
<path d="M1.96484 14.6758C4.17496 14.7795 12.1388 15.1173 15.8032 14.9032C15.8066 14.9032 15.8066 14.9032 15.8066 14.9032" fill="white"/>
<path d="M4.2019 16.6413C5.96193 16.5149 9.39802 16.3719 13.6503 16.7044C13.6503 16.7044 13.6503 16.7044 13.6537 16.7044" fill="white"/>
<path d="M22 3H25.663L28.2133 11.6319L30.734 3H34.2887L30.0809 14.9931H26.2833L22 3Z" fill="white"/>
<path d="M35.4275 3H44.8147V5.5625H38.9362V7.46875H44.388V9.91319H38.9362V12.2778H44.9853V14.9931H35.4275V3Z" fill="white"/>
<path d="M46.9187 14.9931V3H52.7578C53.8409 3 54.6681 3.09722 55.2392 3.29514C55.8103 3.49305 56.2731 3.85764 56.6243 4.38889C56.9755 4.92014 57.1494 5.56944 57.1494 6.33333C57.1494 7 57.0148 7.57292 56.749 8.05555C56.4798 8.53819 56.1122 8.93056 55.6429 9.22917C55.3442 9.42014 54.9339 9.57986 54.412 9.70486C54.8289 9.85417 55.1341 10 55.3245 10.1458C55.4525 10.2431 55.6396 10.4549 55.8858 10.7778C56.1286 11.1007 56.2928 11.3472 56.3748 11.5243L58.0717 15H54.1134L52.2392 11.3333C52.0029 10.8576 51.7895 10.5521 51.6057 10.4097C51.353 10.2257 51.0674 10.1319 50.7458 10.1319H50.4373V15H46.9187V14.9931ZM50.4373 7.85764H51.9143C52.0751 7.85764 52.3836 7.80208 52.8431 7.69444C53.0762 7.64583 53.2665 7.52083 53.411 7.31945C53.5587 7.11806 53.6309 6.88542 53.6309 6.625C53.6309 6.23611 53.516 5.94097 53.2829 5.73264C53.0499 5.5243 52.6167 5.42014 51.9766 5.42014H50.4373V7.85764Z" fill="white"/>
<path d="M59.332 3H62.8444V14.9931H59.332V3Z" fill="white"/>
<path d="M65.3713 3H74.0341V5.57639H68.8903V7.67014H73.2824V10.0903H68.8903V14.9896H65.3713V3Z" fill="white"/>
<path d="M76.0583 3H79.5707V14.9931H76.0583V3Z" fill="white"/>
<path d="M82.0747 3H91.4619V5.5625H85.5834V7.46875H91.0352V9.91319H85.5834V12.2778H91.6326V14.9931H82.0747V3Z" fill="white"/>
<path d="M93.569 3H98.7746C99.8019 3 100.629 3.1493 101.259 3.44097C101.893 3.73611 102.415 4.15972 102.825 4.70833C103.238 5.26042 103.537 5.8993 103.721 6.63194C103.908 7.36111 104 8.13542 104 8.95486C104 10.2361 103.862 11.2292 103.586 11.9375C103.311 12.6424 102.927 13.2361 102.438 13.7118C101.948 14.191 101.423 14.5069 100.859 14.6667C100.091 14.8854 99.3949 14.9931 98.7713 14.9931H93.5657V3H93.569ZM97.0711 5.71528V12.2674H97.931C98.663 12.2674 99.1849 12.1806 99.4934 12.0104C99.8019 11.8403 100.045 11.5382 100.222 11.1111C100.396 10.684 100.485 9.98958 100.485 9.02778C100.485 7.75695 100.288 6.88889 99.8971 6.41667C99.5032 5.94792 98.8566 5.71181 97.9475 5.71181H97.0711V5.71528Z" fill="white"/>
</svg>
